<svg width="60" height="60" fill="none" xmlns="http://www.w3.org/2000/svg"><g clip-path="url(#clip0)"><path d="M60 30a29.87 29.87 0 01-7.74 20.1 26.385 26.385 0 01-2.62 2.56A29.69 29.69 0 0143.06 57 28.882 28.882 0 0139 58.63 30.002 30.002 0 0130 60a29.65 29.65 0 01-10-1.72 26.472 26.472 0 01-3-1.27 29.691 29.691 0 01-6.58-4.35 26.39 26.39 0 01-2.68-2.56A30 30 0 1160 30z" fill="#4E80B4"/><path d="M52.26 19.05V50.1a26.385 26.385 0 01-2.62 2.56A29.69 29.69 0 0143.06 57 28.882 28.882 0 0139 58.63 30.002 30.002 0 0130 60a29.65 29.65 0 01-10-1.72 26.457 26.457 0 01-3-1.27 29.689 29.689 0 01-6.58-4.35 26.39 26.39 0 01-2.68-2.56v-31a1 1 0 011-1h42.52a1 1 0 011 .95z" fill="#1E5EA1"/><path d="M49.64 22.66v30A29.69 29.69 0 0143.06 57 28.882 28.882 0 0139 58.63 30.003 30.003 0 0130 60a29.65 29.65 0 01-10-1.72 26.457 26.457 0 01-3-1.27 29.689 29.689 0 01-6.58-4.35v-30a2 2 0 012-2h35.22a2 2 0 012 2z" fill="#fff"/><path d="M18.87 48.16a2 2 0 110 4 2 2 0 010-4zm22.26 0H24.1a1.96 1.96 0 00-1.96 1.96v.01a1.96 1.96 0 001.96 1.96h17.03a1.96 1.96 0 001.96-1.96v-.01a1.96 1.96 0 00-1.96-1.96zm-20.29 8.51a2 2 0 01-.58 1.39c-.08.084-.171.158-.27.22a26.457 26.457 0 01-3-1.27 1.874 1.874 0 010-.34 1.95 1.95 0 012-2 2 2 0 011.85 2zm22.25 0c.01.113.01.227 0 .34A28.87 28.87 0 0139 58.63H24.11a1.999 1.999 0 110-3.92h17a2 2 0 011.98 1.96z" fill="#DADEE5"/><path d="M30 27.21a7.86 7.86 0 107.86 7.86A7.87 7.87 0 0030 27.21zM34.39 33l-5 5a.76.76 0 01-1.08 0l-2.66-2.42a.79.79 0 01-.06-1.1.772.772 0 011.1 0l1.4 1.28a1 1 0 001.39 0l3.81-3.81a.79.79 0 011.1 1.05z" fill="#5BD28B"/><path fill-rule="evenodd" clip-rule="evenodd" d="M32.62 15.43h5.85a2 2 0 012 2v3.23H19.53v-3.23a2 2 0 012-2h5.85a2.619 2.619 0 115.24 0z" fill="url(#paint0_linear)"/></g><defs><linearGradient id="paint0_linear" x1="30" y1="23.23" x2="30" y2="12.81" gradientUnits="userSpaceOnUse"><stop stop-color="#E9A540"/><stop offset="1" stop-color="#FFC657"/></linearGradient><clipPath id="clip0"><path fill="#fff" d="M0 0h60v60H0z"/></clipPath></defs></svg>