<svg width="11" height="17" fill="none" xmlns="http://www.w3.org/2000/svg"><path fill-rule="evenodd" clip-rule="evenodd" d="M.404.357A1.37 1.37 0 01.85.093a1.533 1.533 0 011.054 0c.167.06.318.15.446.264l8.246 7.284c.128.112.23.246.299.394a1.092 1.092 0 010 .93c-.07.148-.17.282-.299.395L2.35 16.644a1.474 1.474 0 01-.973.356c-.365 0-.715-.128-.973-.356a1.149 1.149 0 01-.403-.86c0-.322.145-.631.403-.86L7.68 8.5.404 2.076a1.216 1.216 0 01-.299-.395 1.092 1.092 0 010-.93C.175.603.275.469.404.357z" fill="#1E4577"/></svg>