<svg xmlns="http://www.w3.org/2000/svg" viewBox="0 0 60 60"><defs><linearGradient id="linear-gradient" x1="44.55" y1="21.97" x2="43.92" y2="43.7" gradientTransform="matrix(1 0 0 -1 0 68)" gradientUnits="userSpaceOnUse"><stop offset="0" stop-color="#e9a540"/><stop offset="1" stop-color="#ffc657"/></linearGradient><style>.cls-5{fill:#fff}</style></defs><g id="Layer_2" data-name="Layer 2"><g id="Layer_1-2" data-name="Layer 1"><path d="M60 30a29.9 29.9 0 01-12.68 24.48 24.24 24.24 0 01-2.51 1.6 30 30 0 01-34-3 26.76 26.76 0 01-2.52-2.36 28.66 28.66 0 01-2.51-3A30 30 0 1160 30z" fill="#4e80b4"/><path d="M44.81 17.48v38.6a30 30 0 01-34-3 26.76 26.76 0 01-2.52-2.36 28.66 28.66 0 01-2.51-3V17.48a2 2 0 012-2h35a2 2 0 012.03 2z" fill="#81afdf"/><path d="M47.32 16.48v38a24.24 24.24 0 01-2.51 1.6 30 30 0 01-34-3 26.76 26.76 0 01-2.52-2.36V16.48a1 1 0 011-1h37a1 1 0 011.03 1z" fill="#1e5ea1"/><path d="M43.81 18H35a1 1 0 011 1v.52a1 1 0 01-1 1H20.65a1 1 0 01-1-1V19a1 1 0 011-1h-8.81a1 1 0 00-1 1v34.08a30 30 0 0034 3V19a1 1 0 00-1.03-1z" fill-rule="evenodd" fill="#fff"/><path class="cls-5" d="M23.73 18.63h6.92a.31.31 0 01.32.31.32.32 0 01-.32.32h-6.92a.31.31 0 01-.31-.32.31.31 0 01.31-.31zm8.18 0h.63a.31.31 0 01.31.31.31.31 0 01-.31.32h-.63a.31.31 0 01-.31-.32.31.31 0 01.31-.31z"/><path d="M31.6 29.32H17.76a1.89 1.89 0 00-1.89 1.89 1.89 1.89 0 001.89 1.89H31.6a1.89 1.89 0 001.88-1.89 1.89 1.89 0 00-1.88-1.89zm0 6.29H17.76a1.89 1.89 0 00-1.89 1.89 1.89 1.89 0 001.89 1.89H31.6a1.89 1.89 0 001.88-1.89 1.89 1.89 0 00-1.88-1.89zm-3.78 6.29H17.76a1.89 1.89 0 00-1.89 1.89 1.89 1.89 0 001.89 1.89h10.06a1.89 1.89 0 001.89-1.89 1.89 1.89 0 00-1.89-1.89zm7.55 6.29H17.76a1.89 1.89 0 00-1.89 1.89A1.89 1.89 0 0017.76 52h17.61a1.89 1.89 0 001.89-1.89 1.89 1.89 0 00-1.89-1.92z" fill="#dadee5"/><path d="M41.66 53.23a.93.93 0 01-.29 0c-7-2-11.66-7.78-11.66-14.26V29.6a.87.87 0 01.92-.81c3.43 0 6.23.24 9.08-1.44l.93-.54a1 1 0 011 0l.93.54a18.88 18.88 0 009.59 2.56.87.87 0 01.92.81V40c0 6.48-4.17 11.09-11.15 13.14a.93.93 0 01-.27.09z" fill-opacity=".1"/><path d="M44.18 52a1.35 1.35 0 01-.29 0c-7-2-11.66-7.79-11.66-14.27v-9.39a.87.87 0 01.92-.81A18.88 18.88 0 0042.74 25l.93-.54a1 1 0 011 0l.92.54a18.92 18.92 0 009.6 2.56.87.87 0 01.92.81v9.32c0 6.48-4.69 12.22-11.66 14.27a1.45 1.45 0 01-.27.04z" fill="url(#linear-gradient)"/><path class="cls-5" d="M44.57 44.57c.9-.48 6.86-3.82 6.86-8.34a3.7 3.7 0 00-3.55-3.66 3.56 3.56 0 00-3.09 1.75.3.3 0 01-.22.11.29.29 0 01-.21-.11 3.57 3.57 0 00-3.09-1.75 3.7 3.7 0 00-3.56 3.66c0 4.52 5.96 7.86 6.86 8.34z"/></g></g></svg>