<svg xmlns="http://www.w3.org/2000/svg" viewBox="0 0 60 60"><defs><style>.cls-2{fill:#e05444}</style></defs><g id="Layer_2" data-name="Layer 2"><g id="Layer_1-2" data-name="Layer 1"><path d="M60 30a29.84 29.84 0 01-8 20.38 29 29 0 01-5.14 4.43c-.28.2-.57.38-.86.55-.49.33-1 .62-1.49.9s-.94.51-1.43.74a30 30 0 01-26.16 0c-.49-.23-1-.48-1.43-.74s-1-.57-1.49-.9c-.29-.17-.58-.35-.86-.55A29 29 0 018 50.38 30 30 0 1160 30z" fill="#4e80b4"/><path class="cls-2" d="M30 26H8l22 27 22-27z"/><path d="M46 15v40.36c-.49.33-1 .62-1.49.9s-.94.51-1.43.74H16.92c-.49-.23-1-.48-1.43-.74s-1-.57-1.49-.9V15a1 1 0 011-1h30a1 1 0 011 1z" fill="#fff"/><path d="M52 26v24.38a29 29 0 01-5.14 4.43c-.28.2-.57.38-.86.55-.49.33-1 .62-1.49.9L35 51.5V43zM25 43v8.5l-9.51 4.76c-.51-.28-1-.57-1.49-.9-.29-.17-.58-.35-.86-.55A29 29 0 018 50.38V26z" fill="#f16b5c"/><path class="cls-2" d="M46.86 54.81c-.28.2-.57.38-.86.55-.49.33-1 .62-1.49.9s-.94.51-1.43.74a30 30 0 01-26.16 0c-.49-.23-1-.48-1.43-.74s-1-.57-1.49-.9c-.29-.17-.58-.35-.86-.55l.86-.87 9.2-9.28L24.84 43l.16.16 5 5 5-5 .16-.16 1.64 1.66 9.2 9.28z"/><path d="M30 34h-9.5a1.5 1.5 0 000 3h19a1.5 1.5 0 000-3zm0-7h-9.5a1.5 1.5 0 000 3h19a1.5 1.5 0 000-3zm0-7h-9.5a1.5 1.5 0 000 3h19a1.5 1.5 0 000-3z" fill="#dadee5"/></g></g></svg>